<svg width="27" height="17" viewBox="0 0 27 17" fill="none" xmlns="http://www.w3.org/2000/svg">
<path fill-rule="evenodd" clip-rule="evenodd" d="M27 10.61H2.66717V11.2097H27V16.7002C27 16.8653 26.8651 17 26.6996 17H24.6344C24.469 17 24.334 16.8653 24.334 16.7002V15.5653H2.66597V16.7002C2.66597 16.8653 2.53102 17 2.36558 17H0.300392C0.134943 17 0 16.8653 0 16.7002V0.299829C0 0.134689 0.133768 0 0.300392 0H2.36558C2.53102 0 2.66597 0.134689 2.66597 0.299829V4.83954H7.8429C8.00834 4.83954 8.14329 4.97423 8.14329 5.13937V7.34944H26.6993C26.8648 7.34944 26.9997 7.48413 26.9997 7.64927V10.6112L27 10.61Z" fill="black"/>
</svg>
