<svg width="31" height="24" viewBox="0 0 31 24" fill="none" xmlns="http://www.w3.org/2000/svg">
<path d="M21.9003 24C21.6292 24 21.4092 23.7799 21.4092 23.5088V4.45194C21.4092 4.18085 21.6292 3.96082 21.9003 3.96082C22.1726 3.96082 22.3914 4.18085 22.3914 4.45194V23.5076L22.3926 23.5088C22.3926 23.6389 22.3404 23.7641 22.248 23.8553C22.1568 23.9477 22.0316 24 21.9003 24Z" fill="black"/>
<path d="M24.3479 24C24.0768 24 23.8568 23.78 23.8568 23.5089V4.44698C23.8519 4.31325 23.9017 4.18439 23.9941 4.08837C24.0865 3.99233 24.2154 3.93762 24.3479 3.93762C24.4816 3.93762 24.6093 3.99233 24.7017 4.08837C24.7941 4.18441 24.8439 4.31327 24.8402 4.44698V23.5089C24.8402 23.6389 24.788 23.7642 24.6956 23.8566C24.6032 23.9477 24.478 24 24.3479 24Z" fill="black"/>
<path d="M29.9752 4.91504H16.2746C16.0023 4.91504 15.7822 4.695 15.7822 4.42391V1.97916C15.7822 1.70807 16.0023 1.48804 16.2746 1.48804H29.9752C30.1065 1.48804 30.2305 1.54031 30.3228 1.63149C30.4152 1.72388 30.4675 1.8491 30.4675 1.97918V4.42514H30.4663C30.4651 4.69623 30.2462 4.91504 29.9752 4.91504ZM16.7657 3.93154H29.4841V2.46786H16.7657V3.93154Z" fill="black"/>
<path d="M21.9008 8.33965C21.7707 8.34087 21.6455 8.28859 21.5531 8.1962L18.1272 4.77035H18.1284C17.9364 4.57949 17.9364 4.26827 18.1284 4.07619C18.3205 3.88411 18.6317 3.88411 18.8226 4.07619L22.2484 7.50204V7.50082C22.3895 7.64184 22.432 7.85336 22.3554 8.03695C22.2801 8.22052 22.1001 8.34086 21.9008 8.33965Z" fill="black"/>
<path d="M24.3475 8.33967C24.1482 8.34089 23.9695 8.22054 23.8941 8.03697C23.8175 7.8534 23.86 7.64188 24.0011 7.50084L27.4269 4.07499L27.4257 4.0762C27.6202 3.90115 27.918 3.90966 28.1028 4.09444C28.2876 4.27922 28.2949 4.57707 28.1199 4.77037L24.694 8.19621V8.19743C24.6016 8.28861 24.4776 8.33967 24.3475 8.34088L24.3475 8.33967Z" fill="black"/>
<path d="M28.2636 2.42035C27.9913 2.42035 27.7725 2.20031 27.7725 1.92922V0.508095C27.7725 0.237 27.9913 0.0169678 28.2636 0.0169678C28.5347 0.0169678 28.7547 0.237006 28.7547 0.508095V1.92922C28.7547 2.0593 28.7024 2.18452 28.6101 2.27691C28.5177 2.36809 28.3937 2.42035 28.2636 2.42035Z" fill="black"/>
<path d="M25.3264 2.4204C25.0565 2.41918 24.8377 2.19914 24.8377 1.92927V0.508142C24.8329 0.375633 24.8827 0.245555 24.9751 0.149529C25.0675 0.0534917 25.1964 0 25.3289 0C25.4626 0 25.5902 0.0534917 25.6826 0.149529C25.775 0.245567 25.8248 0.375645 25.82 0.508142V1.92927C25.8212 2.05935 25.7689 2.18578 25.6753 2.27696C25.5829 2.36935 25.4577 2.42161 25.3264 2.4204Z" fill="black"/>
<path d="M17.9873 2.4204C17.715 2.4204 17.495 2.20036 17.495 1.92927V0.508142C17.4901 0.375633 17.5399 0.245555 17.6323 0.149529C17.7247 0.0534917 17.8536 0 17.9861 0C18.1198 0 18.2475 0.0534917 18.3398 0.149529C18.4322 0.245567 18.4821 0.375645 18.4784 0.508142V1.92927C18.4784 2.05935 18.4262 2.18456 18.3338 2.27696C18.2414 2.36814 18.1174 2.4204 17.9873 2.4204Z" fill="black"/>
<path d="M20.9228 2.4204C20.6505 2.4204 20.4305 2.20036 20.4305 1.92927V0.508142C20.4256 0.375633 20.4755 0.245555 20.5679 0.149529C20.6603 0.0534917 20.7891 0 20.9216 0C21.0554 0 21.183 0.0534917 21.2754 0.149529C21.3678 0.245567 21.4176 0.375645 21.414 0.508142V1.92927C21.414 2.05935 21.3617 2.18456 21.2693 2.27696C21.1769 2.36814 21.0529 2.42041 20.9216 2.42041L20.9228 2.4204Z" fill="black"/>
<path d="M5.41593 24C5.14484 24 4.9248 23.7799 4.9248 23.5088V13.263C4.93453 12.998 5.15092 12.7877 5.41593 12.7877C5.68094 12.7877 5.89856 12.998 5.90706 13.263V23.5088C5.90706 23.7799 5.68702 24 5.41593 24Z" fill="black"/>
<path d="M7.55656 24C7.28546 24 7.06543 23.7799 7.06543 23.5088V13.263C7.07516 12.998 7.29155 12.7877 7.55656 12.7877C7.82157 12.7877 8.03919 12.998 8.04768 13.263L8.0489 23.5088C8.04768 23.7799 7.82764 24 7.55656 24Z" fill="black"/>
<path d="M12.4813 13.7228H0.492343C0.220031 13.7228 0.00121594 13.504 0.00121594 13.2317V11.0909H0C0 10.9608 0.0522747 10.8356 0.144665 10.7432C0.237058 10.652 0.361055 10.5997 0.492354 10.5997H12.4813C12.7524 10.5997 12.9724 10.8198 12.9724 11.0909V13.2317C12.9724 13.504 12.7523 13.724 12.4813 13.7228ZM0.98344 12.7381H11.9902V11.5832H0.98344V12.7381Z" fill="black"/>
<path d="M5.41558 17.7028C5.26119 17.704 5.1153 17.6311 5.0217 17.5083L2.02626 13.5282C1.87066 13.3106 1.91807 13.0103 2.13081 12.8498C2.34356 12.6906 2.64503 12.7282 2.8116 12.9373L5.80946 16.9175H5.80825C5.92009 17.0658 5.93832 17.2651 5.85566 17.4317C5.77177 17.5982 5.60279 17.704 5.41557 17.704L5.41558 17.7028Z" fill="black"/>
<path d="M7.55669 17.7029C7.37069 17.7029 7.2005 17.5971 7.11781 17.4306C7.03512 17.264 7.05338 17.0646 7.16401 16.9163L10.1619 12.9362C10.3248 12.7198 10.6336 12.6761 10.8499 12.8402C11.0663 13.0031 11.1101 13.3119 10.9472 13.5282L7.94933 17.5084C7.85693 17.6312 7.71107 17.7041 7.55669 17.7029Z" fill="black"/>
<path d="M10.9823 11.5417C10.7112 11.5417 10.4912 11.3229 10.4912 11.0506V9.8057C10.4912 9.53461 10.7112 9.31458 10.9823 9.31458C11.2534 9.31458 11.4735 9.53461 11.4735 9.8057V11.0506C11.4735 11.3229 11.2534 11.5417 10.9823 11.5417Z" fill="black"/>
<path d="M8.41373 11.5418C8.14142 11.5418 7.9226 11.3229 7.9226 11.0506L7.92139 9.80577C7.93111 9.54197 8.14872 9.33167 8.41373 9.33167C8.67875 9.33167 8.89515 9.54198 8.90486 9.80577V11.0506C8.90486 11.3229 8.68482 11.543 8.41373 11.5418Z" fill="black"/>
<path d="M1.99136 11.5418C1.86007 11.543 1.73485 11.4919 1.64125 11.3995C1.54885 11.3071 1.49658 11.1819 1.49658 11.0506V9.80577C1.50631 9.54196 1.7227 9.33167 1.98771 9.33167C2.25272 9.33167 2.47034 9.54198 2.47884 9.80577V11.0506C2.48005 11.3217 2.26123 11.5405 1.99014 11.5418L1.99136 11.5418Z" fill="black"/>
<path d="M4.55998 11.5418C4.28766 11.5418 4.06885 11.3229 4.06885 11.0506V9.80577C4.07736 9.54197 4.29496 9.33167 4.55998 9.33167C4.82499 9.33167 5.04139 9.54198 5.0511 9.80577V11.0506C5.0511 11.3229 4.83106 11.543 4.55998 11.5418Z" fill="black"/>
<path d="M8.41392 8.33969C8.14646 8.3409 7.92764 8.12816 7.92157 7.86191C7.91428 7.59568 8.12094 7.372 8.38718 7.35862C11.2343 7.20909 13.8309 6.72402 16.1069 5.91803C16.3634 5.82686 16.6442 5.9618 16.7341 6.21709C16.8253 6.47239 16.6916 6.75322 16.4351 6.84438C14.0694 7.68319 11.3778 8.18649 8.43594 8.33967L8.41392 8.33969Z" fill="black"/>
<path d="M13.5852 9.80838C13.3263 9.80716 13.1135 9.60415 13.0989 9.3452C13.0843 9.08626 13.2728 8.86014 13.5293 8.82852C15.2714 8.62915 16.7921 8.21459 18.776 7.39401L18.7773 7.39523C18.8988 7.33566 19.0399 7.32836 19.1675 7.37699C19.2939 7.4244 19.396 7.52287 19.4471 7.64809C19.4994 7.7733 19.4969 7.91432 19.441 8.03832C19.3851 8.16232 19.2806 8.25714 19.1529 8.3009C17.7087 8.89781 15.9241 9.54334 13.6422 9.80348C13.6228 9.80591 13.6047 9.80838 13.5852 9.80838Z" fill="black"/>
</svg>
