<svg width="24" height="24" viewBox="0 0 24 24" fill="none" xmlns="http://www.w3.org/2000/svg">
<path d="M8.51875 22.7707H8.3028C7.87091 22.7707 7.52121 22.4199 7.52121 21.9891V21.5741L0 21.573V24H8.5187L8.51875 22.7707Z" fill="black"/>
<path d="M9.2876 15.0128H9.89434C10.3852 15.0128 10.7844 15.412 10.7844 15.9029V18.7427C10.9003 18.6542 11.0436 18.5994 11.1995 18.5994H20.5892C20.7451 18.5994 20.8884 18.6532 21.0042 18.7427V15.9029C21.0042 15.412 21.4035 15.0128 21.8944 15.0128H22.5201V13.1894C22.5201 11.8653 21.4446 10.7898 20.1205 10.7898H11.6935C10.3694 10.7898 9.29388 11.8653 9.29388 13.1894V15.0128H9.2876Z" fill="black"/>
<path d="M20.5894 18.866H11.1997C10.9701 18.866 10.7847 19.0524 10.7847 19.281V22.5032H21.0025V19.281C21.0025 19.0514 20.8161 18.866 20.5875 18.866H20.5894Z" fill="black"/>
<path d="M10.6515 22.7708H8.78809V24H23.0024V22.7708H10.6515Z" fill="black"/>
<path d="M8.41097 15.2824C8.06863 15.2824 7.79053 15.5605 7.79053 15.9029V21.9892C7.79053 22.2726 8.02016 22.5011 8.30246 22.5011H10.5166V15.8997C10.5166 15.5574 10.2386 15.2793 9.8962 15.2793H8.40989L8.41097 15.2824Z" fill="black"/>
<path d="M23.3797 15.2823H21.8934C21.5511 15.2823 21.2729 15.5604 21.2729 15.9028V22.5042H23.4871C23.7705 22.5042 23.9991 22.2745 23.9991 21.9922V15.9059C23.9991 15.5636 23.721 15.2855 23.3786 15.2855L23.3797 15.2823Z" fill="black"/>
<path d="M3.32812 6.47201H8.48653L7.40577 1.34839H1.11396L0.0332031 6.47201H3.32812Z" fill="black"/>
<path d="M3.4624 6.74158H5.05617V21.3035H3.4624V6.74158Z" fill="black"/>
<path d="M15.3707 6.47195C17.1562 6.47195 18.6067 5.02145 18.6067 3.23597C18.6067 1.4505 17.1562 0 15.3707 0C13.5853 0 12.1348 1.4505 12.1348 3.23597C12.1348 5.02145 13.5853 6.47195 15.3707 6.47195ZM15.2359 1.75605C15.2359 1.68021 15.2949 1.62122 15.3707 1.62122C15.4466 1.62122 15.5056 1.68021 15.5056 1.75605V3.16653L17.0372 4.22098C17.0993 4.26417 17.1151 4.34738 17.0719 4.40953C17.0446 4.44745 17.0045 4.46852 16.9613 4.46852C16.934 4.46852 16.9076 4.46009 16.8855 4.44429L15.2949 3.34983C15.257 3.3256 15.2359 3.28242 15.2359 3.23923L15.2359 1.75605Z" fill="black"/>
</svg>
