<svg width="18" height="24" viewBox="0 0 18 24" fill="none" xmlns="http://www.w3.org/2000/svg">
<path d="M15.5849 0H1.9263C0.885902 0 0.0424805 0.843422 0.0424805 1.88381H17.4686C17.4686 0.843422 16.6253 0 15.5849 0Z" fill="black"/>
<path d="M1.67157 22.6066C1.68229 23.3789 2.31121 24 3.08444 24H14.4264C15.1996 24 15.8285 23.3789 15.8393 22.6066L16.5013 9.90076H1.00977L1.67157 22.6066ZM12.5231 11.534C12.5231 11.2736 12.7337 11.063 12.994 11.063C13.2543 11.063 13.465 11.2736 13.465 11.534V22.366C13.465 22.6263 13.2543 22.8369 12.994 22.8369C12.7337 22.8369 12.5231 22.6263 12.5231 22.366V11.534ZM9.69742 11.534C9.69742 11.2736 9.90803 11.063 10.1684 11.063C10.4287 11.063 10.6393 11.2736 10.6393 11.534V22.366C10.6393 22.6263 10.4287 22.8369 10.1684 22.8369C9.90802 22.8369 9.69742 22.6263 9.69742 22.366V11.534ZM6.87178 11.534C6.87178 11.2736 7.0824 11.063 7.34273 11.063C7.60308 11.063 7.81368 11.2736 7.81368 11.534V22.366C7.81368 22.6263 7.60307 22.8369 7.34273 22.8369C7.08238 22.8369 6.87178 22.6263 6.87178 22.366V11.534ZM4.04615 11.534C4.04615 11.2736 4.25676 11.063 4.5171 11.063C4.77743 11.063 4.98804 11.2736 4.98804 11.534V22.366C4.98804 22.6263 4.77743 22.8369 4.5171 22.8369C4.25676 22.8369 4.04615 22.6263 4.04615 22.366V11.534Z" fill="black"/>
<path d="M11.3939 4.17812C11.0263 3.95581 10.6071 3.81443 10.1634 3.77737C9.20393 2.69114 7.60385 2.52832 6.45038 3.32202C5.98041 3.64477 5.42851 3.8349 4.85325 3.87389C4.63094 3.88949 4.28283 3.93922 3.77387 3.81831C2.38831 3.48875 1.15192 4.77094 1.51758 6.13211H16.0059C16.0391 5.97415 16.0557 5.81328 16.0557 5.65141C16.0557 4.3302 14.5229 3.29664 13.23 3.29664C12.5095 3.29664 11.8356 3.63014 11.3939 4.17812Z" fill="black"/>
<path d="M0.0429688 7.07422H17.469V8.95803H0.0429688V7.07422Z" fill="black"/>
</svg>
