<svg width="24" height="25" viewBox="0 0 24 25" fill="none" xmlns="http://www.w3.org/2000/svg">
<path d="M14.9586 5.51724L21.4946 2.37518V4.74829L14.9586 7.89035V5.51724ZM14.9586 8.52209L21.4946 5.38003V24.3318L14.9586 21.1936V8.52209ZM16.1395 14.9473C16.147 15.3214 16.702 15.3204 16.7086 14.9473V14.0534C16.701 13.6793 16.1461 13.6802 16.1395 14.0534V14.9473ZM2.51159 4.74851L9.04759 7.8896V5.51649L2.51159 2.3754V4.74851ZM2.51159 5.38109L9.04759 8.52315V21.1947L2.51159 24.3329V5.38109ZM7.30044 14.9474C7.30518 15.3215 7.86294 15.3215 7.86958 14.9474V14.0535C7.86295 13.6794 7.30519 13.6803 7.30044 14.0535V14.9474ZM0.804199 0.500366V24.5004H1.94245V1.92267C1.94529 1.8507 1.97465 1.774 2.02768 1.72381V1.72097C2.08166 1.66888 2.15079 1.64237 2.22654 1.64142V1.63858C2.22749 1.64142 21.7863 1.6329 21.7824 1.64142C21.8563 1.64332 21.9292 1.66699 21.9784 1.72097C21.9813 1.72097 21.9813 1.72381 21.9813 1.72381C22.0343 1.774 22.0627 1.84975 22.0637 1.92267V24.5004H23.2019V0.500366H0.804199Z" fill="black"/>
</svg>
