<svg width="10" height="15" viewBox="0 0 10 15" fill="none" xmlns="http://www.w3.org/2000/svg">
<path d="M5 0C2.24263 0 0 2.32 0 5.1725C0 6.8975 1.7738 9.4925 3.17061 11.27C1.48139 11.5675 0.410826 12.25 0.410826 13.0575C0.410826 14.32 2.77429 15 5 15C7.22571 15 9.58917 14.32 9.58917 13.0575C9.58917 12.25 8.51861 11.5675 6.82939 11.27C8.2262 9.4925 10 6.8975 10 5.1725C10 2.32 7.75737 0 5 0ZM9.10585 13.0575C9.10585 13.74 7.41904 14.5 5 14.5C2.58096 14.5 0.894152 13.74 0.894152 13.0575C0.894152 12.585 1.8173 11.965 3.52827 11.7175C4.22426 12.5725 4.76075 13.16 4.826 13.23C4.8695 13.28 4.93475 13.3075 5 13.3075C5.06525 13.3075 5.1305 13.28 5.174 13.23C5.23925 13.16 5.77574 12.5725 6.47173 11.7175C8.1827 11.965 9.10585 12.585 9.10585 13.0575ZM5 7.86C3.56694 7.86 2.40213 6.655 2.40213 5.1725C2.40213 3.69 3.56694 2.485 5 2.485C6.43306 2.485 7.59787 3.69 7.59787 5.1725C7.59787 6.655 6.43306 7.86 5 7.86Z" fill="#FAAD25"/>
</svg>
