<svg width="24" height="25" viewBox="0 0 24 25" fill="none" xmlns="http://www.w3.org/2000/svg">
<path d="M23.1211 0H0.634498C0.279179 0 0 0.279179 0 0.634498V23.4764C0 23.8317 0.279179 24.1109 0.634498 24.1109H3.60395C3.95927 24.1109 4.23844 23.8317 4.23844 23.4764V12.1316H19.5171V23.4764C19.5171 23.8317 19.7963 24.1109 20.1516 24.1109H23.1211C23.4764 24.1109 23.7556 23.8317 23.7556 23.4764V0.634498C23.7556 0.279179 23.4764 0 23.1211 0ZM4.23844 10.8626V4.87294C4.23844 4.51762 4.51762 4.23844 4.87294 4.23844H18.8827C19.238 4.23844 19.5171 4.51762 19.5171 4.87294V10.8626H4.23844Z" fill="black"/>
<path d="M17.4106 8.22308H6.34495C5.98963 8.22308 5.71045 8.50226 5.71045 8.85758C5.71045 9.2129 5.98963 9.49208 6.34495 9.49208H17.4106C17.7659 9.49208 18.0451 9.2129 18.0451 8.85758C18.0451 8.50226 17.7659 8.22308 17.4106 8.22308Z" fill="black"/>
<path d="M17.4106 5.58356H6.34495C5.98963 5.58356 5.71045 5.86274 5.71045 6.21805C5.71045 6.57337 5.98963 6.85255 6.34495 6.85255H17.4106C17.7659 6.85255 18.0451 6.57337 18.0451 6.21805C18.0451 5.86274 17.7659 5.58356 17.4106 5.58356Z" fill="black"/>
<path d="M17.6897 16.9791H16.776L15.8116 14.3142C15.6847 13.9335 15.3547 13.6543 14.9487 13.629C13.8827 13.5274 12.8168 13.4767 11.7762 13.4767C10.7356 13.4767 9.64427 13.5274 8.60369 13.629C8.19762 13.6543 7.86768 13.9335 7.74078 14.3142L6.77634 16.9791H5.86266C5.685 16.9791 5.55811 17.106 5.55811 17.2837V17.9943C5.55811 18.172 5.685 18.2989 5.86266 18.2989H6.29412C6.1926 18.5527 6.14184 18.8318 6.14184 19.111V21.6998C6.14184 21.9282 6.29412 22.1059 6.47178 22.182V23.6033C6.47178 23.8824 6.7002 24.0855 6.954 24.0855H7.99458C8.27376 24.0855 8.47679 23.8571 8.47679 23.6033V22.182H14.9994V23.6033C14.9994 23.8824 15.2278 24.0855 15.4816 24.0855H16.5222C16.8014 24.0855 17.0044 23.8571 17.0044 23.6033V22.182C17.1313 22.1312 17.2075 22.0551 17.2836 21.9536C17.3344 21.8774 17.3598 21.8013 17.3598 21.6998V19.111C17.3598 18.8318 17.309 18.5527 17.2075 18.2989H17.6389C17.8166 18.2989 17.9435 18.172 17.9435 17.9943V17.2837C17.9943 17.1314 17.842 16.9791 17.6897 16.9791ZM8.85749 14.8472C9.82193 14.7711 10.8117 14.7203 11.7762 14.7203C12.7406 14.7203 13.7304 14.7711 14.6949 14.8472L15.6339 17.4359H7.91844L8.85749 14.8472ZM9.69503 20.1516C9.69503 20.4054 9.49199 20.6338 9.21281 20.6338H8.07072C7.81692 20.6338 7.5885 20.4308 7.5885 20.1516V19.8217C7.5885 19.5679 7.79154 19.3394 8.07072 19.3394H9.23819C9.49199 19.3394 9.72041 19.5425 9.72041 19.8217V20.1516H9.69503ZM15.9385 20.1516C15.9385 20.4054 15.7354 20.6338 15.4563 20.6338H14.2888C14.035 20.6338 13.8066 20.4308 13.8066 20.1516V19.8217C13.8066 19.5679 14.0096 19.3394 14.2888 19.3394H15.4563C15.7101 19.3394 15.9385 19.5425 15.9385 19.8217V20.1516Z" fill="black"/>
</svg>
